HIERARCHY
ROOT Hips
{
	OFFSET 0.000000 83.214638 0.000000
	CHANNELS 6 Xposition Yposition Zposition Xrotation Yrotation Zrotation
	JOINT Pelvis
	{
		OFFSET 0.000000 0.000000 0.000000
		CHANNELS 3 Xrotation Yrotation Zrotation
		JOINT LeftUpLeg
		{
			OFFSET 8.479700 -4.795502 -0.379100
			CHANNELS 3 Xrotation Yrotation Zrotation
			JOINT LeftLeg
			{
				OFFSET 0.024144 -32.555107 0.112900
				CHANNELS 3 Xrotation Yrotation Zrotation
				JOINT LeftFoot
				{
					OFFSET -0.024144 -32.638630 -3.012600
					CHANNELS 3 Xrotation Yrotation Zrotation
					JOINT LeftToeBase
					{
						OFFSET 0.970200 -13.225400 11.864200
						CHANNELS 3 Xrotation Yrotation Zrotation
						End Site
						{
							OFFSET 0.000000 12.319262 0.000000
						}
					}
					JOINT LFootTongue
					{
						OFFSET 1.142400 -1.059800 6.665200
						CHANNELS 3 Xrotation Yrotation Zrotation
						End Site
						{
							OFFSET 0.000000 12.319262 0.000000
						}
					}
				}
				JOINT LeftPantLeg
				{
					OFFSET 0.918482 -16.533964 -2.284700
					CHANNELS 3 Xrotation Yrotation Zrotation
					End Site
					{
						OFFSET 0.350399 24.744368 0.000000
					}
				}
			}
		}
		JOINT RightUpLeg
		{
			OFFSET -8.479700 -4.795502 -0.379100
			CHANNELS 3 Xrotation Yrotation Zrotation
			JOINT RightLeg
			{
				OFFSET -0.023144 -32.555092 0.112900
				CHANNELS 3 Xrotation Yrotation Zrotation
				JOINT RightFoot
				{
					OFFSET 0.023144 -32.638641 -3.012700
					CHANNELS 3 Xrotation Yrotation Zrotation
					JOINT RightToeBase
					{
						OFFSET -0.970200 -13.225400 11.864200
						CHANNELS 3 Xrotation Yrotation Zrotation
						End Site
						{
							OFFSET 0.000000 12.319244 0.000000
						}
					}
					JOINT RFootTongue
					{
						OFFSET -1.142200 -1.059800 6.665200
						CHANNELS 3 Xrotation Yrotation Zrotation
						End Site
						{
							OFFSET 0.000000 12.319243 0.000000
						}
					}
				}
				JOINT RightPantLeg
				{
					OFFSET -0.919482 -16.533978 -2.284800
					CHANNELS 3 Xrotation Yrotation Zrotation
					End Site
					{
						OFFSET -0.350400 24.744419 0.000000
					}
				}
			}
		}
	}
	JOINT Spine
	{
		OFFSET 0.000000 7.722000 1.166200
		CHANNELS 3 Xrotation Yrotation Zrotation
		JOINT Spine1
		{
			OFFSET 0.000000 12.024101 0.248800
			CHANNELS 3 Xrotation Yrotation Zrotation
			JOINT Spine2
			{
				OFFSET 0.000000 11.502998 -0.491200
				CHANNELS 3 Xrotation Yrotation Zrotation
				JOINT Neck
				{
					OFFSET 0.000000 18.430702 -3.123100
					CHANNELS 3 Xrotation Yrotation Zrotation
					JOINT Head
					{
						OFFSET 0.000000 9.051102 1.034000
						CHANNELS 3 Xrotation Yrotation Zrotation
						JOINT HairB
						{
							OFFSET 0.208400 24.786102 24.822300
							CHANNELS 3 Xrotation Yrotation Zrotation
							End Site
							{
								OFFSET 0.000000 32.263779 0.000000
							}
						}
						JOINT HairA
						{
							OFFSET -7.081100 24.428299 23.196600
							CHANNELS 3 Xrotation Yrotation Zrotation
							End Site
							{
								OFFSET 0.000000 32.263779 0.000000
							}
						}
						JOINT Hat
						{
							OFFSET 16.728800 15.048294 -15.439601
							CHANNELS 3 Xrotation Yrotation Zrotation
							End Site
							{
								OFFSET 0.000000 32.263779 0.000000
							}
						}
					}
				}
				JOINT LeftShoulder
				{
					OFFSET 6.197800 13.665199 -4.064700
					CHANNELS 3 Xrotation Yrotation Zrotation
					JOINT LeftArm
					{
						OFFSET 7.778100 -0.187103 -1.709300
						CHANNELS 3 Xrotation Yrotation Zrotation
						JOINT LeftForeArm
						{
							OFFSET 22.049376 0.000000 0.000000
							CHANNELS 3 Xrotation Yrotation Zrotation
							JOINT LeftHand
							{
								OFFSET 23.009392 0.000000 0.000000
								CHANNELS 3 Xrotation Yrotation Zrotation
								JOINT LeftHandThumb1
								{
									OFFSET 3.507191 -2.063065 3.133727
									CHANNELS 3 Xrotation Yrotation Zrotation
									JOINT LeftHandThumb2
									{
										OFFSET 3.101337 -1.790558 1.790558
										CHANNELS 3 Xrotation Yrotation Zrotation
										JOINT LeftHandThumb3
										{
											OFFSET 3.058640 -1.765907 1.765906
											CHANNELS 3 Xrotation Yrotation Zrotation
											End Site
											{
												OFFSET -0.415260 3.926476 -0.049563
											}
										}
									}
								}
								JOINT LeftHandIndex1
								{
									OFFSET 11.334419 -0.901459 3.706815
									CHANNELS 3 Xrotation Yrotation Zrotation
									JOINT LeftHandIndex2
									{
										OFFSET 3.283112 0.000000 0.000000
										CHANNELS 3 Xrotation Yrotation Zrotation
										JOINT LeftHandIndex3
										{
											OFFSET 3.323853 0.000000 0.000000
											CHANNELS 3 Xrotation Yrotation Zrotation
											End Site
											{
												OFFSET -1.135597 3.097809 0.402452
											}
										}
									}
								}
								JOINT LeftHandMiddle1
								{
									OFFSET 11.335861 0.000000 0.000000
									CHANNELS 3 Xrotation Yrotation Zrotation
									JOINT LeftHandMiddle2
									{
										OFFSET 3.410492 0.000000 0.000000
										CHANNELS 3 Xrotation Yrotation Zrotation
										JOINT LeftHandMiddle3
										{
											OFFSET 3.312172 0.000000 0.000000
											CHANNELS 3 Xrotation Yrotation Zrotation
											End Site
											{
												OFFSET -1.150200 3.080154 0.400270
											}
										}
									}
								}
								JOINT LeftHandRing1
								{
									OFFSET 11.514786 -0.013176 -3.003090
									CHANNELS 3 Xrotation Yrotation Zrotation
									JOINT LeftHandRing2
									{
										OFFSET 3.053307 0.000000 0.000000
										CHANNELS 3 Xrotation Yrotation Zrotation
										JOINT LeftHandRing3
										{
											OFFSET 3.295807 0.000000 0.000000
											CHANNELS 3 Xrotation Yrotation Zrotation
											End Site
											{
												OFFSET -1.281006 3.013344 0.375733
											}
										}
									}
								}
								JOINT LeftHandPinky1
								{
									OFFSET 10.518692 -0.960396 -5.730441
									CHANNELS 3 Xrotation Yrotation Zrotation
									JOINT LeftHandPinky2
									{
										OFFSET 2.861649 0.000000 0.000000
										CHANNELS 3 Xrotation Yrotation Zrotation
										JOINT LeftHandPinky3
										{
											OFFSET 2.863380 0.000000 0.000000
											CHANNELS 3 Xrotation Yrotation Zrotation
											End Site
											{
												OFFSET -0.843597 2.711159 0.369971
											}
										}
									}
								}
							}
							JOINT LSleeve
							{
								OFFSET 6.676277 -0.344902 -1.011730
								CHANNELS 3 Xrotation Yrotation Zrotation
								End Site
								{
									OFFSET 0.000000 14.885353 0.000000
								}
							}
						}
					}
				}
				JOINT RightShoulder
				{
					OFFSET -6.197800 13.665199 -4.064700
					CHANNELS 3 Xrotation Yrotation Zrotation
					JOINT RightArm
					{
						OFFSET -7.778100 -0.187103 -1.709300
						CHANNELS 3 Xrotation Yrotation Zrotation
						JOINT RightForeArm
						{
							OFFSET -22.049376 0.000000 0.000000
							CHANNELS 3 Xrotation Yrotation Zrotation
							JOINT RightHand
							{
								OFFSET -23.009392 0.000000 0.000000
								CHANNELS 3 Xrotation Yrotation Zrotation
								JOINT RightHandThumb1
								{
									OFFSET -3.507191 -2.063065 3.133727
									CHANNELS 3 Xrotation Yrotation Zrotation
									JOINT RightHandThumb2
									{
										OFFSET -3.101337 -1.790558 1.790558
										CHANNELS 3 Xrotation Yrotation Zrotation
										JOINT RightHandThumb3
										{
											OFFSET -3.058640 -1.765907 1.765906
											CHANNELS 3 Xrotation Yrotation Zrotation
											End Site
											{
												OFFSET 0.415260 3.926476 -0.049563
											}
										}
									}
								}
								JOINT RightHandIndex1
								{
									OFFSET -11.334419 -0.901459 3.706815
									CHANNELS 3 Xrotation Yrotation Zrotation
									JOINT RightHandIndex2
									{
										OFFSET -3.283112 0.000000 0.000000
										CHANNELS 3 Xrotation Yrotation Zrotation
										JOINT RightHandIndex3
										{
											OFFSET -3.323853 0.000000 0.000000
											CHANNELS 3 Xrotation Yrotation Zrotation
											End Site
											{
												OFFSET 1.135597 3.097809 0.402452
											}
										}
									}
								}
								JOINT RightHandMiddle1
								{
									OFFSET -11.335861 0.000000 0.000000
									CHANNELS 3 Xrotation Yrotation Zrotation
									JOINT RightHandMiddle2
									{
										OFFSET -3.410492 0.000000 0.000000
										CHANNELS 3 Xrotation Yrotation Zrotation
										JOINT RightHandMiddle3
										{
											OFFSET -3.312172 0.000000 0.000000
											CHANNELS 3 Xrotation Yrotation Zrotation
											End Site
											{
												OFFSET 1.150200 3.080154 0.400270
											}
										}
									}
								}
								JOINT RightHandRing1
								{
									OFFSET -11.514786 -0.013176 -3.003090
									CHANNELS 3 Xrotation Yrotation Zrotation
									JOINT RightHandRing2
									{
										OFFSET -3.053307 0.000000 0.000000
										CHANNELS 3 Xrotation Yrotation Zrotation
										JOINT RightHandRing3
										{
											OFFSET -3.295807 0.000000 0.000000
											CHANNELS 3 Xrotation Yrotation Zrotation
											End Site
											{
												OFFSET 1.281006 3.013344 0.375733
											}
										}
									}
								}
								JOINT RightHandPinky1
								{
									OFFSET -10.518692 -0.960396 -5.730441
									CHANNELS 3 Xrotation Yrotation Zrotation
									JOINT RightHandPinky2
									{
										OFFSET -2.861649 0.000000 0.000000
										CHANNELS 3 Xrotation Yrotation Zrotation
										JOINT RightHandPinky3
										{
											OFFSET -2.863380 0.000000 0.000000
											CHANNELS 3 Xrotation Yrotation Zrotation
											End Site
											{
												OFFSET 0.843597 2.711159 0.369971
											}
										}
									}
								}
							}
							JOINT RSleeve
							{
								OFFSET -6.676277 -0.344902 -1.011730
								CHANNELS 3 Xrotation Yrotation Zrotation
								End Site
								{
									OFFSET 0.000000 14.885353 0.000000
								}
							}
						}
					}
				}
				JOINT Backpack
				{
					OFFSET 0.000000 -2.471497 36.677502
					CHANNELS 3 Xrotation Yrotation Zrotation
					End Site
					{
						OFFSET 0.000000 20.427315 0.000000
					}
				}
				JOINT Hood
				{
					OFFSET 0.000000 18.754097 -10.431000
					CHANNELS 3 Xrotation Yrotation Zrotation
					JOINT Hood1
					{
						OFFSET 0.000000 -5.011002 -7.685901
						CHANNELS 3 Xrotation Yrotation Zrotation
						End Site
						{
							OFFSET 0.000000 9.175140 0.000000
						}
					}
				}
				JOINT LHoodieString
				{
					OFFSET 5.250500 16.397697 3.089900
					CHANNELS 3 Xrotation Yrotation Zrotation
					JOINT LHoodieString1
					{
						OFFSET 0.257700 -6.364304 3.694600
						CHANNELS 3 Xrotation Yrotation Zrotation
						JOINT LHoodieString2
						{
							OFFSET 0.000000 -9.643799 2.679100
							CHANNELS 3 Xrotation Yrotation Zrotation
							End Site
							{
								OFFSET 0.000000 10.009018 0.000000
							}
						}
					}
				}
				JOINT RHoodieString
				{
					OFFSET -5.250500 16.397697 3.089900
					CHANNELS 3 Xrotation Yrotation Zrotation
					JOINT RHoodieString1
					{
						OFFSET -0.257700 -6.364304 3.694600
						CHANNELS 3 Xrotation Yrotation Zrotation
						JOINT RHoodieString2
						{
							OFFSET 0.000000 -9.643799 2.679100
							CHANNELS 3 Xrotation Yrotation Zrotation
							End Site
							{
								OFFSET 0.000000 10.009018 0.000000
							}
						}
					}
				}
			}
			JOINT LBackpack_Strap
			{
				OFFSET 15.223200 -7.719803 -6.610900
				CHANNELS 3 Xrotation Yrotation Zrotation
				End Site
				{
					OFFSET 0.000000 16.040596 0.000000
				}
			}
			JOINT RBackpack_Strap
			{
				OFFSET -15.223000 -7.719803 -6.610900
				CHANNELS 3 Xrotation Yrotation Zrotation
				End Site
				{
					OFFSET 0.000000 16.040596 0.000000
				}
			}
		}
	}
	JOINT BoyFacialAnim_Joint
	{
		OFFSET 1.000000 -82.208099 -1.550900
		CHANNELS 3 Xrotation Yrotation Zrotation
		End Site
		{
			OFFSET 0.000000 30.012791 0.000000
		}
	}
}
MOTION
Frames: 4
Frame Time: 0.033333
0.625395 73.412155 -0.039073 11.590864 -9.203782 19.784876 -0.000001 0.000001 -0.000001 -33.755355 15.831509 -14.071598 47.943478 9.664141 -1.807741 -22.877512 2.382358 -0.527433 -0.000000 0.000000 -0.000000 -0.000000 0.000000 -0.000000 0.000000 0.000000 -0.000000 -51.289711 15.823305 -6.500333 63.989741 -10.298584 -10.101059 -20.389127 -1.674910 9.359220 0.000000 -0.000001 0.000000 0.000000 -0.000001 0.000000 0.000002 0.000000 0.000000 3.149367 7.530263 3.410792 11.810181 -0.183207 -13.009003 12.009004 -0.241362 -12.825896 -6.240256 -2.995388 2.795424 -23.715716 -9.135349 -8.010331 0.000000 -0.000000 0.000000 0.000000 -0.000000 0.000000 0.000000 -0.000000 0.000000 1.334758 -14.991724 -1.594020 -8.626601 -22.193805 -59.127896 -0.000006 -44.221998 -0.000029 41.361536 2.296720 -13.144326 -23.747468 24.860666 3.845244 4.009882 8.774947 0.812079 0.000002 -0.000001 0.000001 -0.100976 -9.731740 -1.185941 0.097506 1.157065 -9.634558 0.000000 0.000000 -0.000002 0.000004 -0.001930 0.015982 0.035103 0.695951 -5.776980 -0.000001 -0.000001 0.000002 0.000002 0.000000 0.000001 0.131505 1.342044 -11.193743 -0.000000 -0.000000 -0.000002 0.991156 11.662937 -4.329476 -0.005522 -3.695144 -3.487892 0.000001 0.000000 -0.000002 0.000003 -0.000000 0.000001 3.759596 10.136931 -8.202310 -31.509319 40.115409 94.532359 0.000009 33.929918 -0.000006 19.466565 -3.976329 -14.614371 -18.160730 -13.356698 -5.634191 4.916894 -11.673551 -0.444071 -0.000003 0.000000 -0.000002 -0.023302 4.674900 0.570984 0.097845 -1.164653 9.602986 0.000002 0.000002 0.000005 0.000008 0.000005 0.000000 0.084576 -1.083406 8.927191 0.000001 -0.000001 0.000003 0.000004 0.000003 0.000008 0.078540 -1.044259 8.601961 -0.000004 -0.000001 0.000000 -0.051385 -6.929609 -0.848674 0.063320 -0.938037 7.721239 0.000002 0.000001 -0.000003 -0.000002 0.000002 0.000002 -0.000000 0.000000 -0.000000 -0.000000 0.000000 -0.000000 -0.000000 0.000000 -0.000000 -0.000000 0.000000 -0.000000 -0.000000 0.000000 -0.000000 -0.000002 -0.000000 0.000000 -0.000000 0.000000 -0.000000 -0.000000 0.000000 -0.000000 -0.000002 -0.000000 0.000000 0.000000 0.000000 -0.000001 0.000000 0.000000 -0.000001 -0.000001 0.000001 -0.000001 
0.569666 72.680756 -0.471550 13.756230 -5.427508 20.618861 0.000000 0.000000 0.000001 -38.237045 14.998460 -14.575996 50.030357 9.868890 -3.180157 -22.953592 0.895162 -0.167931 -0.000000 0.000000 -0.000000 -0.000000 0.000000 0.000000 -0.000000 -0.000000 0.000000 -54.118560 16.145068 -7.690343 65.825108 -9.966728 -10.076613 -23.886360 -0.790999 7.749721 0.000000 -0.000001 0.000000 0.000000 -0.000001 0.000000 0.000000 0.000000 -0.000000 3.028221 7.729524 3.169585 11.535582 -0.247507 -14.245206 11.754255 -0.307551 -14.058770 -6.875963 -3.982289 3.820848 -24.438239 -13.213489 -7.107553 0.000000 0.000000 -0.000000 0.000000 0.000000 -0.000000 0.000000 0.000000 -0.000000 1.491719 -15.360498 -0.896189 -10.691342 -21.958829 -58.521273 0.000007 -41.301713 0.000019 45.007152 2.012315 -12.781958 -23.747475 24.860659 3.845241 4.009881 8.774946 0.812076 0.000000 -0.000002 -0.000000 -0.100972 -9.731747 -1.185966 0.097503 1.157066 -9.634559 -0.000000 0.000001 0.000000 0.000004 -0.001933 0.015964 0.035103 0.695950 -5.777003 0.000000 -0.000000 0.000002 0.000007 -0.000013 -0.000015 0.131497 1.342052 -11.193740 -0.000001 0.000000 -0.000006 0.991168 11.662930 -4.329496 -0.005516 -3.695172 -3.487913 0.000000 0.000000 0.000001 0.000001 -0.000001 0.000001 3.734012 10.083275 -8.356558 -33.825412 41.361057 96.423515 0.000009 32.761033 -0.000006 19.416964 -2.619648 -15.911392 -18.160729 -13.356698 -5.634192 4.916889 -11.673551 -0.444070 0.000003 -0.000000 -0.000001 -0.023322 4.674893 0.570992 0.097830 -1.164656 9.602988 -0.000001 0.000001 0.000004 0.000006 -0.000003 -0.000003 0.084563 -1.083402 8.927202 0.000003 0.000001 0.000002 0.000006 -0.000001 -0.000003 0.078532 -1.044243 8.601986 0.000001 0.000002 0.000001 -0.051382 -6.929629 -0.848672 0.063317 -0.938031 7.721236 0.000001 0.000000 -0.000001 -0.000000 -0.000002 -0.000001 -0.000001 0.000001 0.000000 -0.000001 0.000001 0.000000 -0.000001 0.000001 0.000000 -0.000001 0.000001 0.000000 -0.000001 0.000001 0.000000 -0.000005 0.000001 0.000000 -0.000001 0.000001 0.000000 -0.000001 0.000001 0.000000 -0.000005 0.000001 0.000000 0.000001 -0.000001 -0.000000 0.000001 -0.000001 -0.000000 0.000000 0.000000 0.000001 
0.365286 71.672264 -0.747545 15.309259 -1.224469 20.954291 0.000000 0.000000 -0.000001 -42.379121 14.912694 -15.295602 52.866077 8.416707 -3.628985 -23.534166 0.100836 0.456075 0.000000 -0.000000 0.000000 0.000000 -0.000000 -0.000000 -0.000001 0.000001 -0.000000 -57.198350 16.577738 -10.036505 68.770484 -9.106123 -9.946854 -25.775959 -0.088114 8.872149 -0.000000 -0.000000 -0.000000 -0.000000 -0.000000 -0.000000 0.000001 -0.000000 -0.000001 2.903240 7.718691 2.785741 11.326543 -0.341928 -15.199473 11.557372 -0.394711 -15.016982 -7.402685 -4.990790 4.857428 -24.862551 -17.354788 -6.201192 -0.000000 -0.000001 -0.000000 -0.000000 -0.000001 -0.000000 -0.000000 -0.000001 -0.000000 1.554734 -15.903003 -0.941546 -12.122005 -21.294033 -57.880539 0.000017 -39.902901 0.000039 47.263799 2.402570 -12.614653 -23.747482 24.860675 3.845267 4.009881 8.774945 0.812076 0.000002 0.000000 -0.000000 -0.100956 -9.731744 -1.185942 0.097503 1.157065 -9.634560 -0.000001 0.000000 -0.000003 -0.000009 -0.001914 0.015979 0.035118 0.695957 -5.776982 0.000001 -0.000001 0.000000 -0.000003 -0.000001 0.000001 0.131519 1.342045 -11.193731 -0.000000 -0.000001 0.000003 0.991165 11.662937 -4.329468 -0.005531 -3.695146 -3.487899 0.000001 0.000000 -0.000000 -0.000000 0.000000 0.000001 3.712578 10.056156 -8.625585 -35.615977 42.522883 97.940377 0.000009 32.421221 -0.000019 19.207764 -1.681250 -16.949050 -18.160727 -13.356698 -5.634191 4.916891 -11.673549 -0.444068 0.000002 0.000000 0.000001 -0.023305 4.674917 0.570999 0.097825 -1.164658 9.603003 -0.000000 -0.000001 0.000005 0.000004 -0.000006 -0.000003 0.084576 -1.083402 8.927189 0.000001 0.000001 0.000003 0.000011 -0.000001 -0.000001 0.078535 -1.044240 8.601981 0.000001 0.000001 0.000004 -0.051377 -6.929609 -0.848662 0.063300 -0.938041 7.721227 -0.000000 0.000002 -0.000003 -0.000002 -0.000002 -0.000000 0.000002 0.000001 -0.000001 0.000002 0.000001 -0.000001 0.000002 0.000001 -0.000001 0.000002 0.000001 -0.000001 0.000002 0.000001 -0.000001 -0.000001 0.000001 -0.000002 0.000002 0.000001 -0.000001 0.000002 0.000001 -0.000001 -0.000001 0.000001 -0.000002 -0.000002 0.000000 -0.000000 -0.000002 0.000000 -0.000000 0.000000 0.000000 -0.000001 
0.060600 70.474594 -0.864384 15.896123 2.490293 20.960493 0.000000 -0.000000 -0.000000 -45.504838 15.248682 -16.010660 56.292445 6.044580 -3.539063 -24.646260 0.030277 1.261290 0.000000 -0.000001 -0.000000 0.000000 -0.000001 -0.000000 0.000001 -0.000000 -0.000000 -59.200002 17.442324 -11.899901 72.218766 -8.498485 -9.861664 -27.810883 0.132385 10.185244 0.000000 -0.000000 0.000000 0.000000 -0.000000 0.000000 -0.000001 0.000000 0.000000 2.850069 7.560555 2.221992 11.278344 -0.445413 -15.840008 11.512073 -0.485888 -15.665348 -7.730686 -5.941473 5.854746 -25.136961 -21.247071 -5.226006 -0.000000 0.000001 0.000001 -0.000000 0.000001 0.000001 -0.000000 0.000001 0.000001 1.547679 -16.643204 -1.467351 -13.276730 -20.575416 -57.309631 -0.000004 -39.412490 0.000014 47.892385 3.002929 -12.154166 -23.747473 24.860664 3.845243 4.009881 8.774949 0.812078 0.000004 -0.000001 -0.000000 -0.100983 -9.731741 -1.185953 0.097503 1.157064 -9.634564 -0.000001 -0.000000 -0.000000 -0.000002 -0.001932 0.015973 0.035108 0.695949 -5.777000 -0.000001 -0.000001 0.000002 -0.000003 -0.000006 -0.000007 0.131493 1.342034 -11.193728 -0.000003 0.000000 -0.000000 0.991140 11.662930 -4.329477 -0.005528 -3.695169 -3.487902 -0.000003 0.000001 -0.000002 -0.000001 -0.000001 0.000001 3.691905 10.037912 -8.996591 -36.707513 43.614494 98.854257 0.000002 32.883020 0.000000 18.188324 -1.952946 -17.441651 -18.160729 -13.356696 -5.634189 4.916888 -11.673550 -0.444072 0.000002 0.000001 -0.000003 -0.023295 4.674912 0.570994 0.097829 -1.164653 9.602993 -0.000001 -0.000003 0.000001 0.000005 0.000013 0.000011 0.084575 -1.083413 8.927180 0.000000 0.000000 0.000002 -0.000005 -0.000001 0.000011 0.078540 -1.044238 8.601962 -0.000000 -0.000001 0.000005 -0.051366 -6.929607 -0.848672 0.063304 -0.938046 7.721245 0.000000 0.000000 0.000002 -0.000001 -0.000002 -0.000001 0.000002 0.000000 -0.000001 0.000002 0.000000 -0.000001 0.000002 0.000000 -0.000001 0.000002 0.000000 -0.000001 0.000002 0.000000 -0.000001 0.000000 -0.000002 -0.000000 0.000002 0.000000 -0.000001 0.000002 0.000000 -0.000001 0.000000 -0.000002 -0.000000 -0.000002 0.000000 0.000001 -0.000002 0.000000 0.000001 0.000000 -0.000000 -0.000000 
